<svg height="71.99998521559333" overflow="visible" viewBox="-1 -1 72.99999067535734 71.99998521559333" width="72.99999067535734" xmlns="http://www.w3.org/2000/svg"><g><defs><path id="path-16965259752261794" d="M49.0543,16.06323c-0.12224,0.11271 -0.56464,0.96932 -0.98957,1.90483c-0.18045,0.40013 -0.45986,0.97496 -0.61702,1.27365l-0.28523,0.54102l-0.76837,0.03945c-1.61241,0.0789 -4.4938,0.46775 -7.58475,1.02004c-0.41329,0.07326 -0.91972,0.14089 -1.11763,0.15216l-0.3609,0.01691l-0.31433,-0.36631c-0.3609,-0.42267 -1.33883,-1.46526 -2.29929,-2.46839c-0.64031,-0.65937 -0.8324,-0.78335 -0.87315,-0.57483c-0.01164,0.08453 2.08974,2.68255 2.79408,3.44899l0.34344,0.37759l-0.66359,1.73576c-0.93136,2.41767 -1.79869,5.05513 -2.04317,6.2217l-0.07567,0.36068l-0.25612,0.03381c-0.1397,0.02254 -0.46568,0.06763 -0.72762,0.10144c-0.26194,0.03381 -1.03032,0.19161 -1.71719,0.34941c-0.68688,0.15216 -1.6357,0.36631 -2.11884,0.47339c-0.47732,0.10708 -1.01867,0.23106 -1.1933,0.28178c-0.17463,0.04508 -0.65777,0.16343 -1.07688,0.25924c-1.32136,0.29869 -1.17584,0.28742 -1.30972,0.08453c-0.18627,-0.29869 -3.35871,-3.24611 -3.48677,-3.24611c-0.15717,0 -0.19791,0.08453 -0.12224,0.22542c0.03493,0.06763 0.38419,0.46775 0.77419,0.89042c0.39001,0.42831 0.96628,1.07076 1.28062,1.43708c0.31433,0.36068 0.72762,0.78898 0.90807,0.95242l0.3318,0.28742l-0.13388,0.32123c-0.06985,0.18034 -0.32598,1.07076 -0.56464,1.9781c-0.49478,1.88229 -0.92554,3.33064 -1.44361,4.84098c-0.19791,0.57483 -0.36672,1.05386 -0.37254,1.05949c-0.00582,0.01127 -0.25612,0.06763 -0.55882,0.12398c-0.90225,0.16907 -3.32961,0.78898 -3.37617,0.86225c-0.08149,0.12398 -0.01746,0.2367 0.1397,0.2536c0.29687,0.03381 3.26558,-0.48466 3.80693,-0.67064l0.30851,-0.10144l0.89643,0.85661c0.48896,0.47339 1.12927,1.12148 1.4145,1.44835c0.64031,0.73263 2.3284,2.49657 3.06766,3.20102l0.54717,0.52975l-0.16881,0.29869c-0.31433,0.56356 -0.62285,1.49907 -1.35629,4.05763c-0.15135,0.52411 -0.41329,1.39763 -0.58792,1.93865c-0.29105,0.89042 -0.31433,0.99187 -0.22702,1.07076c0.16881,0.16343 0.27359,-0.00564 0.64613,-1.01441c0.19209,-0.54102 0.54717,-1.44835 0.77419,-2.02318c0.94882,-2.34441 1.34465,-3.48844 1.34465,-3.85475c0,-0.10708 0.03493,-0.21415 0.07567,-0.24233c0.03493,-0.03381 0.67523,-0.16343 1.40868,-0.29869c0.73927,-0.12962 1.7463,-0.32686 2.23526,-0.43394c0.49478,-0.10708 1.62406,-0.31559 2.50303,-0.47339c0.88479,-0.15216 1.78704,-0.3325 2.01406,-0.39449c0.27359,-0.0789 0.41329,-0.09581 0.42493,-0.05636c0.07567,0.21415 0.6927,0.90733 1.64152,1.83721c0.59956,0.5861 1.6357,1.66814 2.29929,2.39513c1.39704,1.52725 2.16541,2.3106 2.27019,2.3106c0.04075,0 0.09896,-0.03381 0.13388,-0.07326c0.12224,-0.14089 -0.10478,-0.42267 -2.43317,-3.0545c-0.54717,-0.61992 -1.35047,-1.5836 -1.79286,-2.14153c-0.43657,-0.55229 -0.97211,-1.17784 -1.18166,-1.38072l-0.39001,-0.37195l0.1106,-0.20288c0.05821,-0.11271 0.29105,-0.69881 0.51225,-1.29619c0.2212,-0.59737 0.62867,-1.67377 0.89643,-2.38386c0.61702,-1.61742 0.98375,-2.75017 1.15838,-3.54479l0.13388,-0.61428l0.5821,-0.13525c0.32015,-0.07326 1.34465,-0.29869 2.27019,-0.50157c2.14795,-0.46212 4.22022,-0.97496 4.87799,-1.20602c0.27941,-0.10144 0.51807,-0.1747 0.52971,-0.16343c0.3318,0.46212 4.98277,5.08331 5.25635,5.2242c0.1106,0.05636 0.16299,0.06199 0.22702,0.00564c0.15717,-0.12962 0.07567,-0.28178 -0.45404,-0.84534c-0.29687,-0.31559 -0.75091,-0.79462 -1.00703,-1.06513c-0.25612,-0.27614 -0.8324,-0.88479 -1.2748,-1.36382c-0.96046,-1.02004 -1.78122,-1.84848 -2.11884,-2.14716l-0.2503,-0.21415l0.40747,-0.98059c0.81494,-1.94428 2.27601,-6.35132 2.27601,-6.84725v-0.15216l1.12345,-0.03381c1.1642,-0.03381 2.61362,-0.12962 2.79408,-0.18597c0.05239,-0.01691 0.09896,-0.0789 0.09896,-0.13525c0,-0.05636 -0.04657,-0.11835 -0.09896,-0.14089c-0.05821,-0.01691 -0.96046,-0.04508 -2.01406,-0.06199l-1.90346,-0.02254l-0.57046,-0.58047c-0.56464,-0.57483 -1.29226,-1.36945 -3.44021,-3.74767c-0.61702,-0.68754 -1.14674,-1.2511 -1.17584,-1.2511c-0.10478,0 -0.04075,-0.18034 0.52389,-1.44271c0.62867,-1.42581 0.99539,-2.33877 0.99539,-2.49657c0,-0.14653 -0.15135,-0.19161 -0.26194,-0.0789zM47.62815,21.18035c0.20373,0.21415 0.92554,0.97496 1.60659,1.69068c1.3854,1.45962 2.27019,2.41767 2.73587,2.96433l0.31433,0.37195l-0.23866,0.55792c-0.32598,0.77208 -1.57749,4.37323 -1.86272,5.37073c-0.12806,0.45085 -0.30851,1.06513 -0.40165,1.35818l-0.16881,0.54102l-0.51225,0.06763c-0.80912,0.11271 -5.19814,1.18911 -7.4334,1.8203l-0.40747,0.11835l-0.35508,-0.38886c-0.19791,-0.20852 -0.52971,-0.58047 -0.73344,-0.81716c-1.0827,-1.26237 -2.34586,-2.51348 -4.23186,-4.20979c-0.51807,-0.46775 -0.65195,-0.61428 -0.65195,-0.73826c0,-0.08453 0.12806,-0.46775 0.28523,-0.85661c0.15717,-0.38322 0.33762,-0.86788 0.40165,-1.07076c0.06403,-0.19725 0.16299,-0.46212 0.21538,-0.5861c0.05239,-0.11835 0.19791,-0.52411 0.32015,-0.89606c0.12224,-0.37195 0.27359,-0.81716 0.33762,-0.98623c0.06985,-0.16907 0.21538,-0.59174 0.32598,-0.92987c0.57046,-1.70759 1.01285,-2.82344 1.1642,-2.93615c0.05239,-0.03381 0.22702,-0.06763 0.39583,-0.06763c0.52389,-0.01691 2.00824,-0.18034 2.92796,-0.32123c0.48314,-0.0789 1.32136,-0.19161 1.86272,-0.2536c1.00703,-0.11835 1.96167,-0.29305 2.91049,-0.52975l0.52389,-0.12962l0.15135,0.23106c0.08149,0.12962 0.32015,0.40576 0.51807,0.62555zM35.81154,31.89363c1.3854,1.34691 2.95706,2.69945 4.42977,3.80967c0.23866,0.18034 0.52971,0.40576 0.64613,0.5072l0.21538,0.18597l-0.37836,0.76081c-0.20956,0.41703 -0.48314,1.05386 -0.6112,1.4089c-0.33762,0.93551 -1.83943,5.4609 -1.886,5.66941c-0.03493,0.16907 -0.05239,0.18034 -0.39583,0.21979c-0.19791,0.01691 -1.07688,0.21415 -1.95585,0.42831c-0.87897,0.21415 -2.01988,0.47903 -2.53795,0.5861c-0.51807,0.10708 -1.59495,0.34941 -2.38661,0.53538c-0.79165,0.19161 -1.44943,0.33814 -1.45525,0.32686c-1.02449,-1.21729 -1.96749,-2.23733 -3.61483,-3.90547c-0.49478,-0.50157 -1.08853,-1.14966 -1.31554,-1.43708c-0.23284,-0.28742 -0.54135,-0.64246 -0.69852,-0.78335c-0.15135,-0.14089 -0.27941,-0.29305 -0.27941,-0.34377c0,-0.37759 1.11181,-3.83221 1.89764,-5.90611c0.20373,-0.53538 0.43075,-1.21165 0.50061,-1.49907l0.12806,-0.52975l0.32598,-0.06199c0.17463,-0.02818 0.69852,-0.10708 1.1642,-0.1747c3.7429,-0.51284 5.48919,-0.78335 6.11204,-0.95242c0.33762,-0.09017 0.64031,-0.16907 0.66941,-0.16907c0.03493,-0.00564 0.68106,0.59174 1.42614,1.32437zM31.8014,0.01248c-3.08353,0.16694 -5.45993,0.75986 -8.35798,2.07809c-1.01432,0.45476 -1.39107,0.66775 -2.48073,1.34702c-0.88101,0.55262 -1.37947,0.93255 -2.24889,1.7327c-0.53904,0.49506 -0.67814,0.66775 -1.94749,2.42924c-0.37675,0.51808 -0.84044,1.43337 -1.02011,1.99175c-0.21446,0.67351 -0.26082,1.46791 -0.11013,1.93418c0.17388,0.55262 0.72451,0.99587 1.38527,1.11676c0.12751,0.02303 0.38834,0.07483 0.57961,0.11513c0.42312,0.08635 1.94749,0.0921 5.32082,0.02878c1.73304,-0.02878 2.47494,-0.06332 2.45755,-0.10937c-0.04637,-0.1324 -0.54483,-0.16118 -3.69212,-0.20148c-3.10671,-0.0403 -3.30378,-0.05181 -3.85441,-0.17269c-0.85203,-0.19572 -1.43164,-0.50657 -1.62871,-0.88074c-0.10433,-0.20148 -0.10433,-0.78288 0.0058,-1.23189c0.18548,-0.78288 1.80259,-3.30998 2.86328,-4.4728c0.3014,-0.32812 1.0433,-0.90377 1.97647,-1.51971c1.53597,-1.0189 3.44289,-1.88813 5.3614,-2.44075c0.45789,-0.1324 2.13876,-0.47203 3.07194,-0.6217c1.7794,-0.28782 2.9734,-0.37417 4.69485,-0.33388c2.41698,0.05756 3.88339,0.27056 5.73814,0.84045c1.98227,0.60443 3.24002,1.26067 4.39345,2.28533c1.3447,1.20311 1.9359,2.64799 1.6403,3.99501c-0.12751,0.55838 -0.20866,0.80591 -0.36515,1.12252c-0.16809,0.33388 -0.85203,1.18584 -1.30412,1.62909l-0.31299,0.30509l-1.13024,-0.06332c-1.83157,-0.0921 -3.79065,0.06908 -5.67439,0.46628c-4.83395,1.03041 -9.9635,3.9029 -13.85269,7.76551c-3.03136,3.0164 -5.39038,6.85023 -6.93214,11.28273c-0.17388,0.4893 -0.33617,0.89801 -0.37095,0.90953c-0.02898,0.01151 -0.31879,-0.0403 -0.64916,-0.10937c-0.96215,-0.20148 -2.31265,-0.14391 -3.44289,0.14391c-0.2956,0.07483 -1.14763,0.36266 -2.2257,0.7541c-0.42312,0.14967 -1.54756,0.75986 -2.2315,1.20886c-1.91271,1.24916 -3.61677,2.95308 -4.92089,4.92756c-1.19979,1.82481 -2.02284,3.89715 -2.41698,6.13642c-0.13331,0.77137 -0.16229,2.38319 -0.05216,3.2812c0.07535,0.59868 0.38254,1.93418 0.50426,2.1702c0.12172,0.23602 0.34197,0.42598 0.71292,0.61019c0.41732,0.21299 0.75929,0.25904 1.28094,0.17269c0.66076,-0.09786 1.3389,-0.49506 2.64882,-1.53698c1.00273,-0.80015 1.7794,-1.30672 3.81963,-2.48105c0.46948,-0.27631 0.55063,-0.35115 0.31879,-0.31661c-0.39414,0.06908 -2.24889,1.08798 -3.54722,1.95721c-1.194,0.7944 -2.33583,1.47366 -2.77054,1.64636c-0.30719,0.12089 -0.57961,0.12089 -1.00852,0.00576c-0.56802,-0.16118 -0.73611,-0.43749 -0.95636,-1.60031c-0.12751,-0.63897 -0.13911,-2.74009 -0.02898,-3.45965c0.33617,-2.10112 0.96795,-3.84534 2.03443,-5.60683c1.98806,-3.26969 4.96147,-5.53199 8.42174,-6.39547c1.01432,-0.25904 1.66348,-0.33963 3.01397,-0.37993c1.39107,-0.04605 1.27514,-0.10937 1.09546,0.59868c-0.34777,1.37005 -0.62018,3.22364 -0.70133,4.80667c-0.21446,4.09862 0.62598,8.09939 2.39379,11.38059c1.31572,2.44075 3.08353,4.49007 5.29764,6.1134c3.18206,2.34865 7.30309,3.55751 11.65017,3.41936c0.64337,-0.01727 1.20559,-0.05181 1.25775,-0.06908c0.13911,-0.05181 0.12172,0.0921 -0.1449,0.9786c-0.51585,1.773 -1.13604,2.99913 -2.17934,4.3404c-1.95908,2.50983 -4.74121,4.1677 -8.06238,4.81243c-1.80259,0.35115 -3.33276,0.31661 -5.23968,-0.10937c-1.30992,-0.28782 -2.87487,-1.05344 -3.17627,-1.54274c-0.16229,-0.25904 -0.15649,-0.89226 0.0058,-1.24916c0.12172,-0.2648 0.91578,-1.07071 3.11251,-3.15456c1.07808,-1.02466 1.81998,-1.85359 1.88953,-2.10112c0.01739,-0.06332 -0.46948,0.37417 -1.08387,0.97285c-1.29253,1.27219 -1.73304,1.65787 -2.64882,2.33714c-1.32731,0.98436 -1.9359,1.71544 -2.0866,2.51559c-0.06376,0.33388 0,0.85772 0.1449,1.18584c0.22025,0.51233 1.62871,1.30672 3.24582,1.83057c1.17081,0.37993 1.81998,0.46628 3.36174,0.46628c2.5271,0.00576 4.3123,-0.42022 6.57858,-1.5485c1.69246,-0.84045 2.78793,-1.62909 4.09205,-2.93006c0.82305,-0.82318 1.01432,-1.05344 1.57074,-1.88237c0.79407,-1.18584 0.88101,-1.33551 1.194,-2.07234c0.43471,-1.0189 0.54483,-1.42761 0.62018,-2.34289c0.02318,-0.32812 0.05796,-0.60443 0.06955,-0.6217c0.01739,-0.01151 0.39993,-0.0921 0.85203,-0.17269c3.2806,-0.57565 6.57858,-1.91116 9.54039,-3.85109c1.70405,-1.11676 2.98499,-2.15293 4.43402,-3.59781c2.42277,-2.40046 4.34128,-5.08874 5.94101,-8.31813c0.71292,-1.43912 1.13024,-2.44075 1.58234,-3.82807c0.85203,-2.58467 1.40266,-5.66439 1.40266,-7.80581v-0.47203l0.56222,-0.45476c1.10706,-0.88074 1.77361,-1.27219 2.42277,-1.4161c1.08387,-0.23602 1.76202,-0.16694 2.66041,0.27056c1.55336,0.75986 2.87487,2.71131 3.47766,5.14055c0.41732,1.66363 0.55063,2.60769 0.597,4.21951c0.09853,3.50571 -0.55063,6.94233 -2.0866,10.96612c-0.35936,0.94407 -0.60859,1.46791 -0.96795,2.04356c-0.16809,0.27056 -0.39993,0.65048 -0.51585,0.85196c-0.61439,1.06495 -2.06341,2.63072 -3.22843,3.48844c-0.63178,0.46628 -2.49812,1.47942 -3.47766,1.88237c-1.28674,0.53535 -1.73304,0.61594 -2.15615,0.40295c-0.28401,-0.14967 -0.55643,-0.40295 -0.67814,-0.63321c-0.33038,-0.63897 -0.39414,-2.46378 -0.1449,-4.00652c0.03478,-0.18996 0.09853,-0.77137 0.1507,-1.29521c0.05216,-0.52384 0.11592,-1.16857 0.13911,-1.43912c0.08694,-0.82894 0.13331,-1.81905 0.09274,-1.98023c-0.01739,-0.08059 -0.07535,-0.14967 -0.12172,-0.14967c-0.09274,0 -0.08694,-0.05181 -0.28981,1.89964c-0.08694,0.77713 -0.20286,1.7327 -0.26082,2.1299c-0.06376,0.3972 -0.13911,1.10525 -0.17968,1.58304c-0.03478,0.47203 -0.07535,0.88074 -0.08694,0.89801c-0.01159,0.02303 -0.02318,0.4893 -0.02898,1.03617c-0.01159,1.13403 0.03478,1.39307 0.33617,1.93994c0.17968,0.32812 0.23764,0.38569 0.55063,0.5296c0.71292,0.33388 1.59973,0.28782 2.71258,-0.15543c0.7419,-0.29358 2.27207,-1.05344 2.99079,-1.49093c0.84044,-0.51808 1.86055,-1.47942 3.18786,-3.0164c1.66348,-1.92267 3.35594,-5.26144 4.05148,-7.99001c0.52165,-2.04356 0.83464,-4.86999 0.75929,-6.85023c-0.08694,-2.42924 -0.39414,-4.17346 -1.02011,-5.85436c-0.95056,-2.55013 -2.19093,-4.17346 -3.80224,-4.95634c-0.67814,-0.32812 -1.22877,-0.44325 -2.19672,-0.44325c-0.65496,0 -0.82305,0.02303 -1.27514,0.15543c-0.56222,0.17269 -1.52438,0.61019 -1.9417,0.89226l-0.26082,0.17269l-0.09274,-0.8462c-0.20866,-1.87662 -0.7419,-3.96622 -1.44323,-5.68166c-0.12751,-0.31085 -0.23184,-0.56989 -0.23184,-0.57565c0,-0.01727 0.35356,0.03454 1.07808,0.14967c1.00852,0.15543 1.80259,0.14391 2.59666,-0.0403c2.84589,-0.66775 5.3556,-3.546 5.9526,-6.82145c0.04637,-0.24177 0.07535,-0.82318 0.07535,-1.34702c0,-0.99012 -0.08115,-1.55425 -0.34777,-2.37168c-0.22025,-0.69078 -0.84044,-1.88813 -1.25775,-2.435c-1.18241,-1.5485 -3.06614,-2.72858 -4.89771,-3.07397c-3.41391,-0.63897 -6.70609,0.53535 -8.58403,3.06821c-0.64337,0.86347 -1.21139,2.19322 -1.26935,2.96459c-0.04057,0.59868 0.08115,0.47203 0.42312,-0.43174c0.35936,-0.93831 0.52165,-1.25492 0.97954,-1.91691c1.14183,-1.66363 2.90385,-2.84946 4.84554,-3.26393c0.48687,-0.10362 0.79407,-0.1324 1.53597,-0.1324c1.00852,0 1.37947,0.05181 2.19093,0.31661c1.32731,0.43174 2.45175,1.09949 3.34435,2.00326c1.17661,1.17432 1.87214,2.45227 2.18513,4.01803c0.13911,0.70805 0.13911,2.05507 -0.0058,2.7516c-0.12751,0.60443 -0.43471,1.52547 -0.67235,1.98599c-0.52745,1.04193 -1.47801,2.12415 -2.388,2.72282c-0.95636,0.63321 -2.3764,1.19735 -3.4197,1.36429c-0.52745,0.08635 -2.02284,0.04605 -2.41118,-0.06332c-0.23184,-0.06332 -0.26082,-0.0921 -0.53324,-0.6217c-0.4463,-0.86347 -1.86635,-2.94733 -1.95329,-2.86098c-0.01739,0.01151 0,0.07483 0.03478,0.13816c0.12751,0.23602 0.88101,2.10112 1.21139,3.00489c1.44323,3.93744 1.95329,6.49333 1.94749,9.75726c0,1.5485 -0.06376,2.40621 -0.28981,3.85685c-0.69553,4.51885 -2.88066,9.33128 -5.87145,12.92333c-5.23968,6.29185 -12.3573,10.01054 -19.16192,10.0163c-3.61677,0 -6.88577,-0.95558 -9.73746,-2.84946c-1.05489,-0.70229 -1.6403,-1.16857 -2.49812,-2.01477c-3.50085,-3.4539 -5.45993,-8.70382 -5.28025,-14.16098c0.22605,-6.75237 2.89226,-12.81971 8.07397,-18.36322c3.69212,-3.94896 8.29423,-6.56816 13.29047,-7.56403c1.4954,-0.29934 2.31265,-0.37417 4.00511,-0.37417c1.65769,0 2.41698,0.06908 3.76747,0.34539c1.61132,0.32812 2.75315,0.72532 4.3181,1.49093c1.20559,0.58716 2.13876,1.18008 3.14149,1.97448l0.64337,0.51808l-0.33617,-0.41447c-0.34197,-0.42022 -0.49847,-0.56989 -1.30412,-1.27219c-0.78247,-0.67927 -1.97068,-1.50245 -2.72417,-1.88813c-1.28674,-0.65624 -2.64302,-1.18008 -3.51824,-1.35853c-0.50426,-0.10362 -0.52165,-0.16694 -0.17388,-0.662c0.42891,-0.60443 0.81145,-1.4161 0.97954,-2.07809c0.13331,-0.52384 0.1449,-0.64473 0.11592,-1.35278c-0.04637,-1.08798 -0.22025,-1.61182 -0.84044,-2.53861c-0.84623,-1.25492 -1.96488,-2.14717 -3.94135,-3.12578c-0.85203,-0.42598 -1.37368,-0.62746 -2.31844,-0.89801c-1.19979,-0.35115 -2.47494,-0.59868 -3.98192,-0.78288c-0.68394,-0.08059 -3.15308,-0.14391 -3.94135,-0.10362z" vector-effect="non-scaling-stroke"/></defs><path d="M49.0543,16.06323c-0.12224,0.11271 -0.56464,0.96932 -0.98957,1.90483c-0.18045,0.40013 -0.45986,0.97496 -0.61702,1.27365l-0.28523,0.54102l-0.76837,0.03945c-1.61241,0.0789 -4.4938,0.46775 -7.58475,1.02004c-0.41329,0.07326 -0.91972,0.14089 -1.11763,0.15216l-0.3609,0.01691l-0.31433,-0.36631c-0.3609,-0.42267 -1.33883,-1.46526 -2.29929,-2.46839c-0.64031,-0.65937 -0.8324,-0.78335 -0.87315,-0.57483c-0.01164,0.08453 2.08974,2.68255 2.79408,3.44899l0.34344,0.37759l-0.66359,1.73576c-0.93136,2.41767 -1.79869,5.05513 -2.04317,6.2217l-0.07567,0.36068l-0.25612,0.03381c-0.1397,0.02254 -0.46568,0.06763 -0.72762,0.10144c-0.26194,0.03381 -1.03032,0.19161 -1.71719,0.34941c-0.68688,0.15216 -1.6357,0.36631 -2.11884,0.47339c-0.47732,0.10708 -1.01867,0.23106 -1.1933,0.28178c-0.17463,0.04508 -0.65777,0.16343 -1.07688,0.25924c-1.32136,0.29869 -1.17584,0.28742 -1.30972,0.08453c-0.18627,-0.29869 -3.35871,-3.24611 -3.48677,-3.24611c-0.15717,0 -0.19791,0.08453 -0.12224,0.22542c0.03493,0.06763 0.38419,0.46775 0.77419,0.89042c0.39001,0.42831 0.96628,1.07076 1.28062,1.43708c0.31433,0.36068 0.72762,0.78898 0.90807,0.95242l0.3318,0.28742l-0.13388,0.32123c-0.06985,0.18034 -0.32598,1.07076 -0.56464,1.9781c-0.49478,1.88229 -0.92554,3.33064 -1.44361,4.84098c-0.19791,0.57483 -0.36672,1.05386 -0.37254,1.05949c-0.00582,0.01127 -0.25612,0.06763 -0.55882,0.12398c-0.90225,0.16907 -3.32961,0.78898 -3.37617,0.86225c-0.08149,0.12398 -0.01746,0.2367 0.1397,0.2536c0.29687,0.03381 3.26558,-0.48466 3.80693,-0.67064l0.30851,-0.10144l0.89643,0.85661c0.48896,0.47339 1.12927,1.12148 1.4145,1.44835c0.64031,0.73263 2.3284,2.49657 3.06766,3.20102l0.54717,0.52975l-0.16881,0.29869c-0.31433,0.56356 -0.62285,1.49907 -1.35629,4.05763c-0.15135,0.52411 -0.41329,1.39763 -0.58792,1.93865c-0.29105,0.89042 -0.31433,0.99187 -0.22702,1.07076c0.16881,0.16343 0.27359,-0.00564 0.64613,-1.01441c0.19209,-0.54102 0.54717,-1.44835 0.77419,-2.02318c0.94882,-2.34441 1.34465,-3.48844 1.34465,-3.85475c0,-0.10708 0.03493,-0.21415 0.07567,-0.24233c0.03493,-0.03381 0.67523,-0.16343 1.40868,-0.29869c0.73927,-0.12962 1.7463,-0.32686 2.23526,-0.43394c0.49478,-0.10708 1.62406,-0.31559 2.50303,-0.47339c0.88479,-0.15216 1.78704,-0.3325 2.01406,-0.39449c0.27359,-0.0789 0.41329,-0.09581 0.42493,-0.05636c0.07567,0.21415 0.6927,0.90733 1.64152,1.83721c0.59956,0.5861 1.6357,1.66814 2.29929,2.39513c1.39704,1.52725 2.16541,2.3106 2.27019,2.3106c0.04075,0 0.09896,-0.03381 0.13388,-0.07326c0.12224,-0.14089 -0.10478,-0.42267 -2.43317,-3.0545c-0.54717,-0.61992 -1.35047,-1.5836 -1.79286,-2.14153c-0.43657,-0.55229 -0.97211,-1.17784 -1.18166,-1.38072l-0.39001,-0.37195l0.1106,-0.20288c0.05821,-0.11271 0.29105,-0.69881 0.51225,-1.29619c0.2212,-0.59737 0.62867,-1.67377 0.89643,-2.38386c0.61702,-1.61742 0.98375,-2.75017 1.15838,-3.54479l0.13388,-0.61428l0.5821,-0.13525c0.32015,-0.07326 1.34465,-0.29869 2.27019,-0.50157c2.14795,-0.46212 4.22022,-0.97496 4.87799,-1.20602c0.27941,-0.10144 0.51807,-0.1747 0.52971,-0.16343c0.3318,0.46212 4.98277,5.08331 5.25635,5.2242c0.1106,0.05636 0.16299,0.06199 0.22702,0.00564c0.15717,-0.12962 0.07567,-0.28178 -0.45404,-0.84534c-0.29687,-0.31559 -0.75091,-0.79462 -1.00703,-1.06513c-0.25612,-0.27614 -0.8324,-0.88479 -1.2748,-1.36382c-0.96046,-1.02004 -1.78122,-1.84848 -2.11884,-2.14716l-0.2503,-0.21415l0.40747,-0.98059c0.81494,-1.94428 2.27601,-6.35132 2.27601,-6.84725v-0.15216l1.12345,-0.03381c1.1642,-0.03381 2.61362,-0.12962 2.79408,-0.18597c0.05239,-0.01691 0.09896,-0.0789 0.09896,-0.13525c0,-0.05636 -0.04657,-0.11835 -0.09896,-0.14089c-0.05821,-0.01691 -0.96046,-0.04508 -2.01406,-0.06199l-1.90346,-0.02254l-0.57046,-0.58047c-0.56464,-0.57483 -1.29226,-1.36945 -3.44021,-3.74767c-0.61702,-0.68754 -1.14674,-1.2511 -1.17584,-1.2511c-0.10478,0 -0.04075,-0.18034 0.52389,-1.44271c0.62867,-1.42581 0.99539,-2.33877 0.99539,-2.49657c0,-0.14653 -0.15135,-0.19161 -0.26194,-0.0789zM47.62815,21.18035c0.20373,0.21415 0.92554,0.97496 1.60659,1.69068c1.3854,1.45962 2.27019,2.41767 2.73587,2.96433l0.31433,0.37195l-0.23866,0.55792c-0.32598,0.77208 -1.57749,4.37323 -1.86272,5.37073c-0.12806,0.45085 -0.30851,1.06513 -0.40165,1.35818l-0.16881,0.54102l-0.51225,0.06763c-0.80912,0.11271 -5.19814,1.18911 -7.4334,1.8203l-0.40747,0.11835l-0.35508,-0.38886c-0.19791,-0.20852 -0.52971,-0.58047 -0.73344,-0.81716c-1.0827,-1.26237 -2.34586,-2.51348 -4.23186,-4.20979c-0.51807,-0.46775 -0.65195,-0.61428 -0.65195,-0.73826c0,-0.08453 0.12806,-0.46775 0.28523,-0.85661c0.15717,-0.38322 0.33762,-0.86788 0.40165,-1.07076c0.06403,-0.19725 0.16299,-0.46212 0.21538,-0.5861c0.05239,-0.11835 0.19791,-0.52411 0.32015,-0.89606c0.12224,-0.37195 0.27359,-0.81716 0.33762,-0.98623c0.06985,-0.16907 0.21538,-0.59174 0.32598,-0.92987c0.57046,-1.70759 1.01285,-2.82344 1.1642,-2.93615c0.05239,-0.03381 0.22702,-0.06763 0.39583,-0.06763c0.52389,-0.01691 2.00824,-0.18034 2.92796,-0.32123c0.48314,-0.0789 1.32136,-0.19161 1.86272,-0.2536c1.00703,-0.11835 1.96167,-0.29305 2.91049,-0.52975l0.52389,-0.12962l0.15135,0.23106c0.08149,0.12962 0.32015,0.40576 0.51807,0.62555zM35.81154,31.89363c1.3854,1.34691 2.95706,2.69945 4.42977,3.80967c0.23866,0.18034 0.52971,0.40576 0.64613,0.5072l0.21538,0.18597l-0.37836,0.76081c-0.20956,0.41703 -0.48314,1.05386 -0.6112,1.4089c-0.33762,0.93551 -1.83943,5.4609 -1.886,5.66941c-0.03493,0.16907 -0.05239,0.18034 -0.39583,0.21979c-0.19791,0.01691 -1.07688,0.21415 -1.95585,0.42831c-0.87897,0.21415 -2.01988,0.47903 -2.53795,0.5861c-0.51807,0.10708 -1.59495,0.34941 -2.38661,0.53538c-0.79165,0.19161 -1.44943,0.33814 -1.45525,0.32686c-1.02449,-1.21729 -1.96749,-2.23733 -3.61483,-3.90547c-0.49478,-0.50157 -1.08853,-1.14966 -1.31554,-1.43708c-0.23284,-0.28742 -0.54135,-0.64246 -0.69852,-0.78335c-0.15135,-0.14089 -0.27941,-0.29305 -0.27941,-0.34377c0,-0.37759 1.11181,-3.83221 1.89764,-5.90611c0.20373,-0.53538 0.43075,-1.21165 0.50061,-1.49907l0.12806,-0.52975l0.32598,-0.06199c0.17463,-0.02818 0.69852,-0.10708 1.1642,-0.1747c3.7429,-0.51284 5.48919,-0.78335 6.11204,-0.95242c0.33762,-0.09017 0.64031,-0.16907 0.66941,-0.16907c0.03493,-0.00564 0.68106,0.59174 1.42614,1.32437zM31.8014,0.01248c-3.08353,0.16694 -5.45993,0.75986 -8.35798,2.07809c-1.01432,0.45476 -1.39107,0.66775 -2.48073,1.34702c-0.88101,0.55262 -1.37947,0.93255 -2.24889,1.7327c-0.53904,0.49506 -0.67814,0.66775 -1.94749,2.42924c-0.37675,0.51808 -0.84044,1.43337 -1.02011,1.99175c-0.21446,0.67351 -0.26082,1.46791 -0.11013,1.93418c0.17388,0.55262 0.72451,0.99587 1.38527,1.11676c0.12751,0.02303 0.38834,0.07483 0.57961,0.11513c0.42312,0.08635 1.94749,0.0921 5.32082,0.02878c1.73304,-0.02878 2.47494,-0.06332 2.45755,-0.10937c-0.04637,-0.1324 -0.54483,-0.16118 -3.69212,-0.20148c-3.10671,-0.0403 -3.30378,-0.05181 -3.85441,-0.17269c-0.85203,-0.19572 -1.43164,-0.50657 -1.62871,-0.88074c-0.10433,-0.20148 -0.10433,-0.78288 0.0058,-1.23189c0.18548,-0.78288 1.80259,-3.30998 2.86328,-4.4728c0.3014,-0.32812 1.0433,-0.90377 1.97647,-1.51971c1.53597,-1.0189 3.44289,-1.88813 5.3614,-2.44075c0.45789,-0.1324 2.13876,-0.47203 3.07194,-0.6217c1.7794,-0.28782 2.9734,-0.37417 4.69485,-0.33388c2.41698,0.05756 3.88339,0.27056 5.73814,0.84045c1.98227,0.60443 3.24002,1.26067 4.39345,2.28533c1.3447,1.20311 1.9359,2.64799 1.6403,3.99501c-0.12751,0.55838 -0.20866,0.80591 -0.36515,1.12252c-0.16809,0.33388 -0.85203,1.18584 -1.30412,1.62909l-0.31299,0.30509l-1.13024,-0.06332c-1.83157,-0.0921 -3.79065,0.06908 -5.67439,0.46628c-4.83395,1.03041 -9.9635,3.9029 -13.85269,7.76551c-3.03136,3.0164 -5.39038,6.85023 -6.93214,11.28273c-0.17388,0.4893 -0.33617,0.89801 -0.37095,0.90953c-0.02898,0.01151 -0.31879,-0.0403 -0.64916,-0.10937c-0.96215,-0.20148 -2.31265,-0.14391 -3.44289,0.14391c-0.2956,0.07483 -1.14763,0.36266 -2.2257,0.7541c-0.42312,0.14967 -1.54756,0.75986 -2.2315,1.20886c-1.91271,1.24916 -3.61677,2.95308 -4.92089,4.92756c-1.19979,1.82481 -2.02284,3.89715 -2.41698,6.13642c-0.13331,0.77137 -0.16229,2.38319 -0.05216,3.2812c0.07535,0.59868 0.38254,1.93418 0.50426,2.1702c0.12172,0.23602 0.34197,0.42598 0.71292,0.61019c0.41732,0.21299 0.75929,0.25904 1.28094,0.17269c0.66076,-0.09786 1.3389,-0.49506 2.64882,-1.53698c1.00273,-0.80015 1.7794,-1.30672 3.81963,-2.48105c0.46948,-0.27631 0.55063,-0.35115 0.31879,-0.31661c-0.39414,0.06908 -2.24889,1.08798 -3.54722,1.95721c-1.194,0.7944 -2.33583,1.47366 -2.77054,1.64636c-0.30719,0.12089 -0.57961,0.12089 -1.00852,0.00576c-0.56802,-0.16118 -0.73611,-0.43749 -0.95636,-1.60031c-0.12751,-0.63897 -0.13911,-2.74009 -0.02898,-3.45965c0.33617,-2.10112 0.96795,-3.84534 2.03443,-5.60683c1.98806,-3.26969 4.96147,-5.53199 8.42174,-6.39547c1.01432,-0.25904 1.66348,-0.33963 3.01397,-0.37993c1.39107,-0.04605 1.27514,-0.10937 1.09546,0.59868c-0.34777,1.37005 -0.62018,3.22364 -0.70133,4.80667c-0.21446,4.09862 0.62598,8.09939 2.39379,11.38059c1.31572,2.44075 3.08353,4.49007 5.29764,6.1134c3.18206,2.34865 7.30309,3.55751 11.65017,3.41936c0.64337,-0.01727 1.20559,-0.05181 1.25775,-0.06908c0.13911,-0.05181 0.12172,0.0921 -0.1449,0.9786c-0.51585,1.773 -1.13604,2.99913 -2.17934,4.3404c-1.95908,2.50983 -4.74121,4.1677 -8.06238,4.81243c-1.80259,0.35115 -3.33276,0.31661 -5.23968,-0.10937c-1.30992,-0.28782 -2.87487,-1.05344 -3.17627,-1.54274c-0.16229,-0.25904 -0.15649,-0.89226 0.0058,-1.24916c0.12172,-0.2648 0.91578,-1.07071 3.11251,-3.15456c1.07808,-1.02466 1.81998,-1.85359 1.88953,-2.10112c0.01739,-0.06332 -0.46948,0.37417 -1.08387,0.97285c-1.29253,1.27219 -1.73304,1.65787 -2.64882,2.33714c-1.32731,0.98436 -1.9359,1.71544 -2.0866,2.51559c-0.06376,0.33388 0,0.85772 0.1449,1.18584c0.22025,0.51233 1.62871,1.30672 3.24582,1.83057c1.17081,0.37993 1.81998,0.46628 3.36174,0.46628c2.5271,0.00576 4.3123,-0.42022 6.57858,-1.5485c1.69246,-0.84045 2.78793,-1.62909 4.09205,-2.93006c0.82305,-0.82318 1.01432,-1.05344 1.57074,-1.88237c0.79407,-1.18584 0.88101,-1.33551 1.194,-2.07234c0.43471,-1.0189 0.54483,-1.42761 0.62018,-2.34289c0.02318,-0.32812 0.05796,-0.60443 0.06955,-0.6217c0.01739,-0.01151 0.39993,-0.0921 0.85203,-0.17269c3.2806,-0.57565 6.57858,-1.91116 9.54039,-3.85109c1.70405,-1.11676 2.98499,-2.15293 4.43402,-3.59781c2.42277,-2.40046 4.34128,-5.08874 5.94101,-8.31813c0.71292,-1.43912 1.13024,-2.44075 1.58234,-3.82807c0.85203,-2.58467 1.40266,-5.66439 1.40266,-7.80581v-0.47203l0.56222,-0.45476c1.10706,-0.88074 1.77361,-1.27219 2.42277,-1.4161c1.08387,-0.23602 1.76202,-0.16694 2.66041,0.27056c1.55336,0.75986 2.87487,2.71131 3.47766,5.14055c0.41732,1.66363 0.55063,2.60769 0.597,4.21951c0.09853,3.50571 -0.55063,6.94233 -2.0866,10.96612c-0.35936,0.94407 -0.60859,1.46791 -0.96795,2.04356c-0.16809,0.27056 -0.39993,0.65048 -0.51585,0.85196c-0.61439,1.06495 -2.06341,2.63072 -3.22843,3.48844c-0.63178,0.46628 -2.49812,1.47942 -3.47766,1.88237c-1.28674,0.53535 -1.73304,0.61594 -2.15615,0.40295c-0.28401,-0.14967 -0.55643,-0.40295 -0.67814,-0.63321c-0.33038,-0.63897 -0.39414,-2.46378 -0.1449,-4.00652c0.03478,-0.18996 0.09853,-0.77137 0.1507,-1.29521c0.05216,-0.52384 0.11592,-1.16857 0.13911,-1.43912c0.08694,-0.82894 0.13331,-1.81905 0.09274,-1.98023c-0.01739,-0.08059 -0.07535,-0.14967 -0.12172,-0.14967c-0.09274,0 -0.08694,-0.05181 -0.28981,1.89964c-0.08694,0.77713 -0.20286,1.7327 -0.26082,2.1299c-0.06376,0.3972 -0.13911,1.10525 -0.17968,1.58304c-0.03478,0.47203 -0.07535,0.88074 -0.08694,0.89801c-0.01159,0.02303 -0.02318,0.4893 -0.02898,1.03617c-0.01159,1.13403 0.03478,1.39307 0.33617,1.93994c0.17968,0.32812 0.23764,0.38569 0.55063,0.5296c0.71292,0.33388 1.59973,0.28782 2.71258,-0.15543c0.7419,-0.29358 2.27207,-1.05344 2.99079,-1.49093c0.84044,-0.51808 1.86055,-1.47942 3.18786,-3.0164c1.66348,-1.92267 3.35594,-5.26144 4.05148,-7.99001c0.52165,-2.04356 0.83464,-4.86999 0.75929,-6.85023c-0.08694,-2.42924 -0.39414,-4.17346 -1.02011,-5.85436c-0.95056,-2.55013 -2.19093,-4.17346 -3.80224,-4.95634c-0.67814,-0.32812 -1.22877,-0.44325 -2.19672,-0.44325c-0.65496,0 -0.82305,0.02303 -1.27514,0.15543c-0.56222,0.17269 -1.52438,0.61019 -1.9417,0.89226l-0.26082,0.17269l-0.09274,-0.8462c-0.20866,-1.87662 -0.7419,-3.96622 -1.44323,-5.68166c-0.12751,-0.31085 -0.23184,-0.56989 -0.23184,-0.57565c0,-0.01727 0.35356,0.03454 1.07808,0.14967c1.00852,0.15543 1.80259,0.14391 2.59666,-0.0403c2.84589,-0.66775 5.3556,-3.546 5.9526,-6.82145c0.04637,-0.24177 0.07535,-0.82318 0.07535,-1.34702c0,-0.99012 -0.08115,-1.55425 -0.34777,-2.37168c-0.22025,-0.69078 -0.84044,-1.88813 -1.25775,-2.435c-1.18241,-1.5485 -3.06614,-2.72858 -4.89771,-3.07397c-3.41391,-0.63897 -6.70609,0.53535 -8.58403,3.06821c-0.64337,0.86347 -1.21139,2.19322 -1.26935,2.96459c-0.04057,0.59868 0.08115,0.47203 0.42312,-0.43174c0.35936,-0.93831 0.52165,-1.25492 0.97954,-1.91691c1.14183,-1.66363 2.90385,-2.84946 4.84554,-3.26393c0.48687,-0.10362 0.79407,-0.1324 1.53597,-0.1324c1.00852,0 1.37947,0.05181 2.19093,0.31661c1.32731,0.43174 2.45175,1.09949 3.34435,2.00326c1.17661,1.17432 1.87214,2.45227 2.18513,4.01803c0.13911,0.70805 0.13911,2.05507 -0.0058,2.7516c-0.12751,0.60443 -0.43471,1.52547 -0.67235,1.98599c-0.52745,1.04193 -1.47801,2.12415 -2.388,2.72282c-0.95636,0.63321 -2.3764,1.19735 -3.4197,1.36429c-0.52745,0.08635 -2.02284,0.04605 -2.41118,-0.06332c-0.23184,-0.06332 -0.26082,-0.0921 -0.53324,-0.6217c-0.4463,-0.86347 -1.86635,-2.94733 -1.95329,-2.86098c-0.01739,0.01151 0,0.07483 0.03478,0.13816c0.12751,0.23602 0.88101,2.10112 1.21139,3.00489c1.44323,3.93744 1.95329,6.49333 1.94749,9.75726c0,1.5485 -0.06376,2.40621 -0.28981,3.85685c-0.69553,4.51885 -2.88066,9.33128 -5.87145,12.92333c-5.23968,6.29185 -12.3573,10.01054 -19.16192,10.0163c-3.61677,0 -6.88577,-0.95558 -9.73746,-2.84946c-1.05489,-0.70229 -1.6403,-1.16857 -2.49812,-2.01477c-3.50085,-3.4539 -5.45993,-8.70382 -5.28025,-14.16098c0.22605,-6.75237 2.89226,-12.81971 8.07397,-18.36322c3.69212,-3.94896 8.29423,-6.56816 13.29047,-7.56403c1.4954,-0.29934 2.31265,-0.37417 4.00511,-0.37417c1.65769,0 2.41698,0.06908 3.76747,0.34539c1.61132,0.32812 2.75315,0.72532 4.3181,1.49093c1.20559,0.58716 2.13876,1.18008 3.14149,1.97448l0.64337,0.51808l-0.33617,-0.41447c-0.34197,-0.42022 -0.49847,-0.56989 -1.30412,-1.27219c-0.78247,-0.67927 -1.97068,-1.50245 -2.72417,-1.88813c-1.28674,-0.65624 -2.64302,-1.18008 -3.51824,-1.35853c-0.50426,-0.10362 -0.52165,-0.16694 -0.17388,-0.662c0.42891,-0.60443 0.81145,-1.4161 0.97954,-2.07809c0.13331,-0.52384 0.1449,-0.64473 0.11592,-1.35278c-0.04637,-1.08798 -0.22025,-1.61182 -0.84044,-2.53861c-0.84623,-1.25492 -1.96488,-2.14717 -3.94135,-3.12578c-0.85203,-0.42598 -1.37368,-0.62746 -2.31844,-0.89801c-1.19979,-0.35115 -2.47494,-0.59868 -3.98192,-0.78288c-0.68394,-0.08059 -3.15308,-0.14391 -3.94135,-0.10362z" style="stroke: rgb(98, 158, 154); stroke-width: 1; stroke-linecap: butt; stroke-linejoin: miter; fill: rgb(98, 158, 154);" transform="translate(-0.00003435466777546026, -0.00004233903405292949) rotate(0)" vector-effect="non-scaling-stroke"/></g></svg>